# AST/ASF file generated using VICON BodyLanguage
# -----------------------------------------------
:version 1.10
:name VICON
:units
  mass 1.0
  length 0.45
  angle deg
:documentation
   .ast/.asf automatically generated from VICON data using
   VICON BodyBuilder and BodyLanguage model FoxedUp or BRILLIANT.MOD
:root
   order TX TY TZ RX RY RZ
   axis XYZ
   position 0 0 0  
   orientation 0 0 0 
:bonedata
  begin
     id 1 
     name lhipjoint
     direction 0.623415 -0.642378 0.445763 
     length 2.49859 
     axis 0 0 0  XYZ
  end
  begin
     id 2 
     name lfemur
     direction 0.34202 -0.939693 0  
     length 6.69689  
     axis 0 0 20  XYZ
    dof rx ry rz
    limits (-160.0 20.0)
           (-70.0 70.0)
           (-60.0 70.0)
  end
  begin
     id 3 
     name ltibia
     direction 0.34202 -0.939693 0   
     length 7.37574   
     axis 0 0 20   XYZ
    dof rx
    limits (-10.0 170.0)
  end
  begin
     id 4 
     name lfoot
     direction 0.084323 -0.231675 0.969132   
     length 2.09111   
     axis -90 7.62852e-016 20   XYZ
    dof rx rz
    limits (-45.0 90.0)
           (-70.0 20.0)
  end
  begin
     id 5 
     name ltoes
     direction 1.5357e-011 -4.21957e-011 1   
     length 1.04989   
     axis -90 7.62852e-016 20   XYZ
    dof rx
    limits (-90.0 20.0)
  end
  begin
     id 6 
     name rhipjoint
     direction -0.605402 -0.653903 0.45376   
     length 2.45455  
     axis 0 0 0  XYZ 
  end
  begin
     id 7 
     name rfemur
     direction -0.34202 -0.939693 0   
     length 6.64523   
     axis 0 0 -20   XYZ
    dof rx ry rz
    limits (-160.0 20.0)
           (-70.0 70.0)
           (-70.0 60.0)
  end
  begin
     id 8 
     name rtibia
     direction -0.34202 -0.939693 0   
     length 7.3339   
     axis 0 0 -20   XYZ
    dof rx
    limits (-10.0 170.0)
 end
 begin
     id 9 
     name rfoot
     direction -0.120854 -0.332043 0.93549   
     length 2.23135  
     axis -90 -7.62852e-016 -20   XYZ
    dof rx rz
    limits (-45.0 90.0)
           (-20.0 70.0)
  end
  begin
     id 10 
     name rtoes
     direction -1.53563e-011 -4.21914e-011 1   
     length 1.10614   
     axis -90 -7.62852e-016 -20   XYZ
    dof rx
    limits (-90.0 20.0)
  end
  begin
     id 11 
     name lowerback
     direction 0.0319682 0.998615 -0.0417941   
     length 2.02718   
     axis 0 0 0   XYZ
    dof rx ry rz
    limits (-20.0 45.0)
           (-30.0 30.0)
           (-30.0 30.0)
  end
  begin
     id 12 
     name upperback
     direction 7.63181e-005 0.995808 0.0914691   
     length 1.97539   
     axis 0 0 0   XYZ
    dof rx ry rz
    limits (-20.0 45.0)
           (-30.0 30.0)
           (-30.0 30.0)
  end
  begin
     id 13 
     name thorax
     direction -0.016423 0.993627 0.111514   
     length 2.00349   
     axis 0 0 0   XYZ
    dof rx ry rz
    limits (-20.0 45.0)
           (-30.0 30.0)
           (-30.0 30.0)
  end
  begin
     id 14 
     name lowerneck
     direction -0.174763 0.981668 -0.0760716   
     length 1.71436   
     axis 0 0 0   XYZ
    dof rx ry rz
    limits (-20.0 45.0)
           (-30.0 30.0)
           (-30.0 30.0)
  end
  begin
     id 15 
     name upperneck
     direction 0.345458 0.934587 -0.0848868   
     length 1.72805   
     axis 0 0 0   XYZ
    dof rx ry rz
    limits (-20.0 45.0)
           (-30.0 30.0)
           (-30.0 30.0)
  end
  begin
     id 16
     name head
     direction 0.13001 0.989848 -0.0574291  
     length 1.767  
     axis 0 0 0   XYZ
    dof rx ry rz
    limits (-20.0 45.0)
           (-30.0 30.0)
           (-30.0 30.0)
  end
  begin
     id 17 
     name lclavicle
     direction 0.952951 0.290122 0.0878234  
     length 3.54654  
     axis 0 0 0   XYZ
    dof ry rz
    limits (-20.0 10.0)
           (0.0 20.0)
  end
  begin
     id 18 
     name lhumerus
     direction 1 -4.48957e-011 -4.56525e-028   
     length 5.19807   
     axis 180 -30 -90   XYZ
    dof rx ry rz
    limits (-60.0 90.0)
           (-90.0 90.0)
           (-90.0 90.0)
  end
  begin
     id 19
     name lradius
     direction 1 -4.48979e-011 -2.0317e-027   
     length 3.0937   
     axis 180 -30 -90   XYZ
    dof rx
    limits (-10.0 170.0)
  end
  begin
     id 20
     name lwrist
     direction 1 -4.48953e-011 -3.05809e-027   
     length 1.54685   
     axis 8.48514e-016 90 90   XYZ
    dof ry
    limits (-180.0 0.0)
 end
  begin
     id 21 
     name lhand
     direction 1 -4.48952e-011 -6.11639e-027   
     length 0.672632   
     axis 3.9013e-015 90 90   XYZ
    dof rx rz
    limits (-90.0 90.0)
           (-45.0 45.0)
  end
  begin
     id 22 
     name lfingers
     direction 1 -4.48925e-011 -1.22426e-026   
     length 0.542293   
     axis 7.80276e-015 90 90   XYZ
    dof rx
    limits (0.0 90.0)
  end
  begin
     id 23
     name lthumb
     direction 0.707107 -6.3486e-011 0.707107   
     length 0.778628   
     axis -90 45 5.37419e-014   XYZ
    dof rx rz
    limits (-45.0 45.0)
           (-45.0 45.0)
  end
  begin
     id 24 
     name rclavicle
     direction -0.960732 0.273675 -0.0457849   
     length 3.52079  
     axis 0 0 0   XYZ 
    dof ry rz
    limits (-10.0 20.0)
           (-20.0 0.0)
  end
  begin
     id 25 
     name rhumerus
     direction -1 -4.48976e-011 -1.63613e-027  
     length 5.45222   
     axis 180 30 90   XYZ
    dof rx ry rz
    limits (-90.0 60.0)
           (-90.0 90.0)
           (-90.0 90.0)
  end
  begin
     id 26 
     name rradius
     direction -1 -4.48957e-011 -7.00033e-028   
     length 3.01284   
     axis 180 30 90   XYZ
    dof rx
    limits (-10.0 170.0)
  end
  begin
     id 27 
     name rwrist
     direction -1 -4.48983e-011 -3.05543e-027   
     length 1.50642   
     axis 8.48514e-016 -90 -90   XYZ
    dof ry
    limits (-180.0 0.0)
  end
  begin
     id 28
     name rhand
     direction -1 -4.48984e-011 -6.11072e-027   
     length 0.622296   
     axis 3.9013e-015 -90 -90   XYZ
    dof rx rz
    limits (-90.0 90.0)
           (-45.0 45.0)
  end
  begin
     id 29
     name rfingers
     direction -1 -4.48865e-011 -1.22637e-026   
     length 0.501711   
     axis 7.80276e-015 -90 -90   XYZ
    dof rx
    limits (0.0 90.0)
  end
  begin
     id 30
     name rthumb
     direction -0.707107 -6.34932e-011 0.707107   
     length 0.72036   
     axis -90 -45 -5.37419e-014   XYZ
    dof rx rz
    limits (-45.0 45.0)
           (-45.0 45.0)
  end
:hierarchy
  begin
    root lhipjoint rhipjoint lowerback
    lhipjoint lfemur
    lfemur ltibia
    ltibia lfoot
    lfoot ltoes
    rhipjoint rfemur
    rfemur rtibia
    rtibia rfoot
    rfoot rtoes
    lowerback upperback
    upperback thorax
    thorax lowerneck lclavicle rclavicle
    lowerneck upperneck
    upperneck head
    lclavicle lhumerus
    lhumerus lradius
    lradius lwrist
    lwrist lhand lthumb
    lhand lfingers
    rclavicle rhumerus
    rhumerus rradius
    rradius rwrist
    rwrist rhand rthumb
    rhand rfingers
  end

#!OML:ASF H:\Not Pregnant\Project 1\Capture day 1\Session 1\non-pregnant.ASF
:FULLY-SPECIFIED
:DEGREES
152
root 4.64574 15.2962 30.954 -167.065 6.30395 -181.365
lowerback 3.39577 -1.30258 -4.81066
upperback -4.91801 -1.94676 -2.05562
thorax -6.95629 -0.657668 0.708648
lowerneck 31.4882 -16.9412 -28.8456
upperneck -30.3238 -23.4988 52.3307
head -0.989312 -15.7847 32.1569
rclavicle 2.99668e-014 4.6118e-014
rhumerus -40.2556 -16.2148 -72.6778
rradius 25.1203
rwrist 9.31862
rhand -7.42291 -9.17737
rfingers 7.12502
rthumb 18.464 -38.3211
lclavicle 2.99668e-014 4.6118e-014
lhumerus -41.4457 -18.3161 103.798
lradius 83.2525
lwrist 38.8231
lhand -18.3907 -13.8521
lfingers 7.12502
lthumb 7.89323 15.9806
rfemur -47.6516 -3.59412 19.0661
rtibia 57.4097
rfoot -19.0261 -6.6304
rtoes -24.9892
lfemur -19.7733 1.48014 -22.0407
ltibia 36.9632
lfoot -28.3224 -4.80663
ltoes -28.0962
153
root 4.66365 15.3527 30.8422 -166.934 6.72072 -181.198
lowerback 3.09602 -1.4085 -4.66526
upperback -5.0349 -2.05253 -1.98974
thorax -6.90372 -0.712021 0.699293
lowerneck 31.5545 -16.9009 -28.8119
upperneck -30.0981 -23.5093 52.1881
head -0.99005 -15.7981 31.9192
rclavicle -2.36057e-014 -2.22639e-014
rhumerus -41.6867 -15.233 -71.6048
rradius 25.7067
rwrist 11.0684
rhand -5.99884 -7.58613
rfingers 7.12502
rthumb 19.8335 -36.5942
lclavicle -2.36057e-014 -2.22639e-014
lhumerus -41.7563 -19.2547 104.724
lradius 84.3485
lwrist 38.5074
lhand -17.6689 -13.9363
lfingers 7.12502
lthumb 8.58983 15.869
rfemur -47.5804 -4.06033 19.8086
rtibia 55.5435
rfoot -18.6304 -7.34499
rtoes -24.2275
lfemur -18.692 1.49295 -21.899
ltibia 35.5475
lfoot -27.6601 -4.4021
ltoes -29.2323
154
root 4.68333 15.4067 30.73 -166.785 7.1342 -181.042
lowerback 2.77945 -1.52742 -4.53269
upperback -5.16028 -2.17484 -1.91828
thorax -6.84946 -0.773056 0.703017
lowerneck 31.602 -16.8389 -28.8053
upperneck -29.8248 -23.5136 52.0311
head -0.975659 -15.8038 31.6714
rclavicle 4.14963e-014 7.15625e-015
rhumerus -43.0485 -14.224 -70.5722
rradius 26.3027
rwrist 12.541
rhand -4.82112 -6.35656
rfingers 7.12502
rthumb 20.9653 -35.2435
lclavicle 4.14963e-014 7.15625e-015
lhumerus -42.1007 -20.1559 105.609
lradius 85.3894
lwrist 38.0707
lhand -16.9564 -14.0536
lfingers 7.12502
lthumb 9.27738 15.7223
rfemur -47.5398 -4.56778 20.587
rtibia 53.747
rfoot -18.2008 -7.89691
rtoes -23.5069
lfemur -17.6598 1.55617 -21.7713
ltibia 34.1806
lfoot -26.9731 -4.07813
ltoes -30.2523
155
root 4.70505 15.4573 30.618 -166.619 7.54653 -180.888
lowerback 2.4499 -1.65567 -4.40595
upperback -5.28755 -2.30895 -1.84338
thorax -6.78919 -0.839256 0.71316
lowerneck 31.6371 -16.7629 -28.8193
upperneck -29.5225 -23.5143 51.8756
head -0.947717 -15.805 31.4373
rclavicle -4.75095e-014 -5.56597e-015
rhumerus -44.3193 -13.1682 -69.6207
rradius 26.9013
rwrist 13.5222
rhand -3.91432 -5.55477
rfingers 7.12502
rthumb 21.8362 -34.3428
lclavicle -4.75095e-014 -5.56597e-015
lhumerus -42.4682 -21.031 106.442
lradius 86.3941
lwrist 37.5408
lhand -16.2367 -14.1534
lfingers 7.12502
lthumb 9.97184 15.5904
rfemur -47.5346 -5.11655 21.4173
rtibia 52.0381
rfoot -17.7531 -8.29614
rtoes -22.8643
lfemur -16.683 1.67951 -21.6467
ltibia 32.8833
lfoot -26.2747 -3.84049
ltoes -31.1802
156
root 4.7286 15.5042 30.5071 -166.432 7.95577 -180.75
lowerback 2.11291 -1.79401 -4.29512
upperback -5.4197 -2.45662 -1.77105
thorax -6.72913 -0.910706 0.729091
lowerneck 31.6494 -16.6763 -28.8536
upperneck -29.1796 -23.5151 51.7248
head -0.897799 -15.8039 31.2089
rclavicle 1.68967e-015 2.06736e-014
rhumerus -45.4883 -12.0914 -68.7498
rradius 27.4682
rwrist 13.9238
rhand -3.31091 -5.17672
rfingers 7.12502
rthumb 22.4156 -33.8961
lclavicle 1.68967e-015 2.06736e-014
lhumerus -42.851 -21.8919 107.219
lradius 87.3663
lwrist 36.9589
lhand -15.5074 -14.224
lfingers 7.12502
lthumb 10.6754 15.4848
rfemur -47.5854 -5.72221 22.2931
rtibia 50.4332
rfoot -17.2795 -8.56066
rtoes -22.3467
lfemur -15.7802 1.85671 -21.5385
ltibia 31.6731
lfoot -25.5745 -3.69745
ltoes -31.9724
157
root 4.75389 15.5466 30.3974 -166.22 8.3658 -180.631
lowerback 1.7643 -1.94234 -4.20807
upperback -5.55724 -2.61753 -1.6992
thorax -6.66695 -0.986759 0.757051
lowerneck 31.6456 -16.5818 -28.9061
upperneck -28.8088 -23.5182 51.5786
head -0.830415 -15.8024 30.9872
rclavicle -3.926e-014 -7.15625e-015
rhumerus -46.5367 -11.0157 -67.9503
rradius 27.9753
rwrist 13.7311
rhand -3.01706 -5.19809
rfingers 7.12502
rthumb 22.6976 -33.8832
lclavicle -3.926e-014 -7.15625e-015
lhumerus -43.2427 -22.7348 107.939
lradius 88.3247
lwrist 36.3386
lhand -14.7502 -14.2167
lfingers 7.12502
lthumb 11.4057 15.4531
rfemur -47.7079 -6.39071 23.2237
rtibia 48.9437
rfoot -16.7568 -8.74992
rtoes -22.075
lfemur -14.9605 2.07868 -21.4493
ltibia 30.5606
lfoot -24.8827 -3.62554
ltoes -32.7025
158
root 4.78091 15.5851 30.2888 -165.987 8.77791 -180.548
lowerback 1.40444 -2.09955 -4.15907
upperback -5.69604 -2.7908 -1.63512
thorax -6.59816 -1.06651 0.796986
lowerneck 31.6134 -16.489 -28.9597
upperneck -28.4185 -23.5192 51.4445
head -0.749009 -15.7976 30.7754
rclavicle 2.06736e-014 3.33958e-014
rhumerus -47.471 -9.95702 -67.2148
rradius 28.4284
rwrist 12.97
rhand -3.02933 -5.54434
rfingers 7.12502
rthumb 22.6858 -34.2309
lclavicle 2.06736e-014 3.33958e-014
lhumerus -43.6417 -23.5812 108.606
lradius 89.2757
lwrist 35.7053
lhand -13.9982 -14.1646
lfingers 7.12502
lthumb 12.1309 15.4637
rfemur -47.9003 -7.12739 24.1952
rtibia 47.5796
rfoot -16.186 -8.88935
rtoes -21.9698
lfemur -14.2244 2.32773 -21.3929
ltibia 29.5481
lfoot -24.1945 -3.66837
ltoes -33.2384
159
root 4.8098 15.62 30.1811 -165.739 9.16516 -180.501
lowerback 1.03801 -2.27397 -4.14349
upperback -5.83293 -2.98748 -1.57671
thorax -6.52141 -1.15585 0.849101
lowerneck 31.5461 -16.4049 -29.0026
upperneck -28.0195 -23.5178 51.3179
head -0.659418 -15.7887 30.5603
rclavicle -4.14466e-014 -2.22639e-014
rhumerus -48.2814 -8.96273 -66.5058
rradius 28.805
rwrist 11.7592
rhand -3.33648 -6.12762
rfingers 7.12502
rthumb 22.391 -34.8499
lclavicle -4.14466e-014 -2.22639e-014
lhumerus -44.0459 -24.4345 109.221
lradius 90.2289
lwrist 35.038
lhand -13.2652 -14.0593
lfingers 7.12502
lthumb 12.8376 15.526
rfemur -48.1537 -7.93983 25.2093
rtibia 46.3477
rfoot -15.5678 -9.02529
rtoes -22.0429
lfemur -13.5651 2.579 -21.3603
ltibia 28.6312
lfoot -23.5193 -3.81119
ltoes -33.6458
160
root 4.84032 15.6517 30.0737 -165.481 9.54674 -180.486
lowerback 0.648764 -2.46108 -4.15628
upperback -5.959 -3.20033 -1.52536
thorax -6.41821 -1.25234 0.907522
lowerneck 31.4347 -16.3295 -29.0246
upperneck -27.6146 -23.5049 51.1955
head -0.568491 -15.7692 30.3402
rclavicle 3.55825e-014 3.49861e-014
rhumerus -48.9713 -8.03214 -65.8131
rradius 29.1254
rwrist 10.2183
rhand -3.88605 -6.84966
rfingers 7.12502
rthumb 21.8634 -35.6345
lclavicle 3.55825e-014 3.49861e-014
lhumerus -44.4442 -25.3012 109.782
lradius 91.1856
lwrist 34.3549
lhand -12.581 -13.9522
lfingers 7.12502
lthumb 13.4971 15.5904
rfemur -48.4587 -8.80212 26.2599
rtibia 45.2502
rfoot -14.9169 -9.17244
rtoes -22.1402
lfemur -12.9736 2.84184 -21.3531
ltibia 27.8018
lfoot -22.8626 -4.03547
ltoes -33.9431
161
root 4.87312 15.68 29.9668 -165.232 9.89867 -180.503
lowerback 0.270229 -2.66327 -4.20117
upperback -6.073 -3.4351 -1.48147
thorax -6.30596 -1.35861 0.975135
lowerneck 31.3013 -16.2683 -29.0238
upperneck -27.2312 -23.4868 51.0846
head -0.483005 -15.7453 30.1296
rclavicle 3.3694e-014 3.89618e-014
rhumerus -49.5563 -7.20074 -65.1026
rradius 29.3922
rwrist 8.52598
rhand -4.62159 -7.6312
rfingers 7.12502
rthumb 21.157 -36.4968
lclavicle 3.3694e-014 3.89618e-014
lhumerus -44.8442 -26.1904 110.293
lradius 92.1559
lwrist 33.6422
lhand -11.9472 -13.8385
lfingers 7.12502
lthumb 14.1079 15.6626
rfemur -48.7915 -9.71144 27.3428
rtibia 44.2864
rfoot -14.2365 -9.37504
rtoes -22.2186
lfemur -12.4281 3.10404 -21.3602
ltibia 27.054
lfoot -22.2392 -4.31852
ltoes -34.2567
162
root 4.90755 15.7048 29.8603 -164.992 10.248 -180.546
lowerback -0.0986997 -2.87271 -4.27666
upperback -6.17862 -3.6808 -1.44116
thorax -6.18794 -1.46914 1.05431
lowerneck 31.1487 -16.2155 -29.0023
upperneck -26.8687 -23.4579 50.9808
head -0.407158 -15.7135 29.9297
rclavicle -4.15708e-014 -3.97569e-014
rhumerus -50.0456 -6.48442 -64.3313
rradius 29.5993
rwrist 6.87885
rhand -5.45474 -8.36857
rfingers 7.12502
rthumb 20.3564 -37.3217
lclavicle -4.15708e-014 -3.97569e-014
lhumerus -45.242 -27.0951 110.756
lradius 93.138
lwrist 32.8961
lhand -11.3434 -13.7209
lfingers 7.12502
lthumb 14.6897 15.7387
rfemur -49.1496 -10.6458 28.4559
rtibia 43.4487
rfoot -13.5228 -9.65138
rtoes -22.3047
lfemur -11.9254 3.37651 -21.3856
ltibia 26.3858
lfoot -21.6522 -4.63553
ltoes -34.5542
